<?xml version="1.0" encoding="utf-8"?>
<!-- Generator: Adobe Illustrator 23.0.3, SVG Export Plug-In . SVG Version: 6.00 Build 0)  -->
<svg version="1.1" id="Layer_1" xmlns="http://www.w3.org/2000/svg" xmlns:xlink="http://www.w3.org/1999/xlink" x="0px" y="0px"
	 viewBox="0 0 60.25 60.25" style="enable-background:new 0 0 60.25 60.25;" xml:space="preserve">
<g>
	<path d="M42.37,37.4c-0.48,0-0.95,0.21-1.27,0.57c-0.77,0.86-1.7,1.55-2.75,2.05c-1.23,0.6-2.77,1.01-4.55,1.22
		c-2.26,0.23-4.32,0.15-6.11-0.24c-1.78-0.39-3.32-1.06-4.57-1.98c-1.24-0.92-2.21-2.07-2.86-3.43c-0.65-1.36-0.99-2.89-0.99-4.53
		c0-1.25,0.16-2.48,0.47-3.68c0.31-1.19,0.76-2.29,1.35-3.28c0.66-1.12,1.49-2.07,2.47-2.83c0.98-0.76,2.15-1.35,3.45-1.76
		c1.31-0.41,2.77-0.62,4.35-0.62c1.54,0,2.94,0.21,4.15,0.64c1.21,0.42,2.23,1.01,3.05,1.75c0.81,0.74,1.44,1.62,1.87,2.62
		c0.43,1,0.65,2.09,0.65,3.23c0,1.37-0.3,2.64-0.91,3.79c-0.61,1.16-1.32,2.09-2.13,2.75c-0.97,0.8-1.55,0.97-1.86,0.97
		c-0.04,0-0.09-0.01-0.16-0.08c-0.06-0.06-0.09-0.17-0.09-0.31c0-0.13,0.03-0.46,0.2-1.27l1.77-8.34c0.14-0.67-0.02-1.37-0.46-1.9
		c-0.43-0.53-1.08-0.84-1.76-0.84c-0.88,0-1.66,0.5-2.03,1.25c-0.9-1.07-2.17-1.61-3.81-1.61c-1.63,0-3.11,0.51-4.4,1.51
		c-1.27,0.99-2.27,2.28-2.96,3.83c-0.69,1.54-1.03,3.14-1.03,4.74c0,1.56,0.35,2.89,1.03,3.96c0.68,1.08,1.6,1.85,2.71,2.31
		c1.11,0.46,2.27,0.57,3.45,0.33c1.02-0.2,1.94-0.66,2.76-1.35c0.2,0.43,0.49,0.76,0.87,0.99c0.5,0.3,1.19,0.46,2.05,0.46
		c1.43,0,2.79-0.31,4.03-0.92c1.24-0.61,2.32-1.45,3.24-2.49c0.91-1.04,1.62-2.23,2.11-3.54c0.49-1.31,0.74-2.66,0.74-4.02
		c0-1.74-0.31-3.36-0.91-4.81c-0.61-1.45-1.5-2.73-2.65-3.79c-1.15-1.06-2.55-1.88-4.16-2.44c-1.6-0.56-3.38-0.84-5.3-0.84
		c-2.33,0-4.5,0.39-6.44,1.17c-1.94,0.78-3.62,1.87-4.97,3.25c-1.35,1.38-2.4,3.03-3.12,4.9c-0.72,1.87-1.08,3.9-1.08,6.04
		c0,2.06,0.35,3.97,1.05,5.67c0.7,1.71,1.75,3.2,3.11,4.44c1.36,1.23,3.06,2.19,5.05,2.84c1.98,0.65,4.23,0.98,6.7,0.98
		c1.64,0,3.18-0.15,4.58-0.45c1.4-0.3,2.69-0.75,3.82-1.33c1.14-0.58,2.15-1.31,2.99-2.17c0.19-0.19,0.38-0.39,0.55-0.6
		c0.44-0.51,0.53-1.21,0.25-1.82C43.64,37.78,43.05,37.4,42.37,37.4z M31.95,25.74c0.22,0.28,0.38,0.62,0.49,1
		c0.11,0.39,0.17,0.83,0.17,1.33c0,1.02-0.18,2.09-0.53,3.19c-0.35,1.08-0.87,1.99-1.54,2.69c-0.65,0.68-1.37,1.01-2.22,1.01
		c-0.7,0-1.25-0.27-1.68-0.82c-0.45-0.57-0.67-1.42-0.67-2.53c0-1.12,0.18-2.21,0.55-3.26c0.36-1.03,0.87-1.88,1.53-2.52
		c0.64-0.62,1.33-0.92,2.12-0.92c0.38,0,0.73,0.07,1.02,0.21C31.48,25.26,31.74,25.47,31.95,25.74z"/>
	<path d="M39.43,5.32h-18.6c-8.56,0-15.5,6.94-15.5,15.5v18.6c0,8.56,6.94,15.5,15.5,15.5h18.6c8.56,0,15.5-6.94,15.5-15.5v-18.6
		C54.93,12.26,47.99,5.32,39.43,5.32z M50.28,39.43c0,5.98-4.87,10.85-10.85,10.85h-18.6c-5.98,0-10.85-4.87-10.85-10.85v-18.6
		c0-5.98,4.87-10.85,10.85-10.85h18.6c5.98,0,10.85,4.87,10.85,10.85V39.43z"/>
</g>
</svg>
