<?xml version="1.0" encoding="utf-8"?>
<!-- Generator: Adobe Illustrator 23.0.3, SVG Export Plug-In . SVG Version: 6.00 Build 0)  -->
<svg version="1.1" id="Layer_1" xmlns="http://www.w3.org/2000/svg" xmlns:xlink="http://www.w3.org/1999/xlink" x="0px" y="0px"
	 viewBox="0 0 60.25 60.25" style="enable-background:new 0 0 60.25 60.25;" xml:space="preserve">
<style type="text/css">
	.st0{fill:#010101;}
</style>
<path class="st0" d="M39.42,5.32h-18.6c-8.56,0-15.5,6.94-15.5,15.5v18.6c0,8.56,6.94,15.5,15.5,15.5h18.6
	c8.56,0,15.5-6.94,15.5-15.5v-18.6C54.93,12.26,47.98,5.32,39.42,5.32z M50.28,39.42c0,5.98-4.87,10.85-10.85,10.85h-1.36V35.26
	h5.99l0.99-6.01h-6.98v-4.17c0-1.64,1.26-2.91,2.91-2.91h3.97v-6.01h-3.97c-4.93,0-8.91,4-8.91,8.93v4.15h-5.82v6.01h5.82v15.02
	H20.82c-5.98,0-10.85-4.87-10.85-10.85v-18.6c0-5.98,4.87-10.85,10.85-10.85h18.6c5.98,0,10.85,4.87,10.85,10.85V39.42z"/>
</svg>
