<?xml version="1.0" encoding="utf-8"?>
<!-- Generator: Adobe Illustrator 23.0.3, SVG Export Plug-In . SVG Version: 6.00 Build 0)  -->
<svg version="1.1" id="Layer_1" xmlns="http://www.w3.org/2000/svg" xmlns:xlink="http://www.w3.org/1999/xlink" x="0px" y="0px"
	 viewBox="0 0 530.31 517.63" style="enable-background:new 0 0 530.31 517.63;" xml:space="preserve">
<style type="text/css">
	.st0{fill:#010101;}
</style>
<g>
	<path class="st0" d="M164.6,63.95c26.4,7.39,34.09,33.72,34.09,47.84c0,14.35,0.39,31.41,23.27,45.37s45.76,21.33,77.17,31.8
		c28.38,9.46,29.85,35.7,29.87,40.67c0,0.53,0.29,0.98,0.75,1.24c16.53,9.47,18.13,29.56,18.24,35.27c0.02,0.79,0.62,1.41,1.41,1.43
		c3.72,0.08,15.31,2.31,41.24,21.82c19.71,14.84,34.9,36,44.07,50.91c3.34,5.44,11.75,3.33,12.08-3.05
		c1.76-33.36-5.84-54.11-8.63-60.49c-0.42-0.97,0.26-2.02,1.31-2.04c2-0.05,4.36-0.34,6.8-0.74c5.52-0.92,7.04-8.02,2.4-11.15
		c-4.25-2.87-9.06-6.79-13.91-12.11c-7.85-8.6-14.81-29.69-18.15-40.05c-5.48-17.01-17.97-41.98-21.77-49.41
		c-0.49-0.96,0.17-2.06,1.24-2.12c4.35-0.26,8.95-2.24,11.73-3.65c1.06-0.54,1.11-2.06,0.06-2.61c-9.59-5.12-14.01-14.97-15.5-19.09
		c-0.32-0.88,0.24-1.84,1.17-1.96c2.79-0.37,5.1-1.88,6.58-3.1c0.85-0.71,0.65-2.06-0.36-2.5c-2.89-1.24-8.02-3.85-10.49-7.65
		c-2.93-4.52-5.21-7.39-6.78-9.15c-0.83-0.93-0.17-2.39,1.07-2.44c10.43-0.4,16.75-5.22,18.55-6.81c0.35-0.31,0.53-0.74,0.51-1.21
		c-0.8-15.27-8.96-33.32-26.43-52.22c-17.74-19.2-44.79-32.28-66.31-31.99c-21.52,0.29-33.15,7.79-34.89,0.23
		c-0.86-3.72-0.08-6.5,0.94-8.35c0.61-1.11-0.47-2.42-1.7-2.13c-12.4,2.88-18.02,10.72-20.1,14.58c-0.59,1.1-2.17,1.03-2.7-0.1
		c-1.3-2.77-0.62-5.92,0.35-8.32c0.53-1.32-0.85-2.58-2.08-1.89c-4.33,2.43-11.15,7.22-16.29,15.3
		c-8.14,12.8-21.52,15.41-47.7,25.88c-15.19,6.08-20.29,9.7-21.9,11.68C163.13,62.44,163.57,63.66,164.6,63.95z"/>
	<path class="st0" d="M301.07,275.43c-1.55-1.55-25.02,0.26-25.02,0.26l-11.23,20.1c0,0,5.62,0.19,5.62,3.68
		c0,0,5.43-1.45,7.95,1.36c0.53,0.59,0.78,1.36,0.78,1.36s0.58-6.4,7.17-4.27c0,0,3.1-4.27,8.73-4.46c0,0-0.39-5.62,6.79-4.65
		c0,0-0.97-4.07,1.55-8.53C303.4,280.28,302.62,276.98,301.07,275.43z"/>
	<path class="st0" d="M238.18,255.9c-6.52-1-12.92-7-11.95-5.07c0.97,1.94,5.33,13.92,15.84,15.73c10.51,1.81,20.36-2.93,22.37-1.42
		c2.02,1.51,6.58,2.39,6.58,2.39s0-3.11,0.37-5.67c0.36-2.49,9.69-7.56,14.54-17.06c4.85-9.5-2.13-20.16-3.1-22.1
		c-0.97-1.94,0,6.79-3.1,12.6c-3.1,5.82-11.05,7.76-14.15,4.85c-3.1-2.91-2.52-8.14,2.91-11.05c5.43-2.91,4.85,4.46,6.59,4.46
		c1.75,0,7.76-2.33,5.62-12.02c-2.13-9.69-17.06-13.18-23.85-12.41c-6.79,0.78-12.8,5.43-12.8,5.43l-1.12,0.35
		c0,0-7.33,2.02-12.01,6.99c-4.69,4.97-10.84,19.01-4.35,26.53c6.48,7.52,11.95,4.1,12.99,2.7c1.05-1.4-5.2-5.35,0.38-7.95
		c5.58-2.6,10.12,0.07,10.59,4.29C251.02,251.7,244.7,256.9,238.18,255.9z"/>
	<path class="st0" d="M520.16,432.11c-1.27-1.27-3.31-1.34-4.65-0.16c-17.04,15.02-35.8,27.36-55.75,36.71
		c-20.42,9.48-41.59,15.86-62.96,18.97c-42.29,6.51-87.15-0.07-126.34-18.54c-15.41-7.26-30.29-16.65-44.27-27.89
		c-2.93-2.34-5.9-4.86-8.83-7.47c-0.68-0.61-1.34-1.23-2-1.86l-0.07-0.07c-0.02-0.02-0.02-0.02-0.02-0.05
		c-0.05-0.02-0.09-0.05-0.14-0.09c-0.05-0.05-0.09-0.09-0.14-0.11c-0.93-0.89-1.86-1.77-2.77-2.65c-4.4-4.56-7.87-10.03-10.12-16.09
		c-0.02-0.07-0.05-0.14-0.07-0.18c-1.82-4.99-2.81-10.37-2.81-15.97c0-23.23,17.06-42.5,39.37-45.9c0.02-0.02,0.05-0.02,0.07,0
		c2.29-0.36,4.63-0.54,7.01-0.54c0.61,0,1.2,0.02,1.79,0.05c-1.02-3.11-3.4-12.52,1.36-21.15c5.81-10.46,13.84-17.81,12.71-12.75
		c-1.16,5.01,4.63,10.46,11.41,10.64c6.81,0.18,22.71-8.71,36.08-17.83c13.39-9.1,9.12-16.68,12.98-20.94
		c3.9-4.27,18.04,4.27,19.42-1.54c0.91-4.06-5.2-15.29-9.05-21.87c-1.09-1.77-3.61-1.59-4.58,0.27
		c-3.45,6.78-11.23,9.98-14.54,11.05c-0.95,0.29-1.63,1.11-1.75,2.11c-0.18,1.57-0.43,4.27-0.54,7.83
		c-0.18,6.01-21.31,15.34-25.19,17.49c-3.86,2.11-6.6,1.75-6.6,1.75c-2.72,4.04-9.87,1.13-9.87,1.13c-2.09,1.68-4.58,0.68-6.47-0.59
		c-1.34-0.88-3.09-0.45-3.79,1c-1.04,2.2-3.22,4.76-7.96,5.79c-30.18,6.58-45.77-32.15-52.78-57.77
		c-6.97-25.59-3.86-54.68-5.01-75.63c-1.18-20.92-10.87-29.09-26-36.05c-15.09-6.97-24.05-12.39-25.98-34.15
		c-1.41-15.68-5.4-21.03-7.56-22.8c-0.7-0.59-1.7-0.7-2.56-0.34c-11.87,5.01-18.74,21.31-26.3,28.91
		c-7.87,7.83-19.13,3.4-32.76,5.15c-4.95,0.64-8.74,1.68-11.59,2.75c-2,0.75-2.22,3.61-0.32,4.61c3.45,1.86,4.4,5.76,4.49,6.06
		c-0.52-0.23-5.29-2.02-18.04,3.11c-6.17,2.5-10.28,5.2-13.02,7.58c-1.97,1.7-0.34,4.88,2.22,4.45c9.46-1.57,14.02,0.88,14.02,0.88
		s-0.41,0.07-17.13,6.72c-23.05,9.1-18.38,14.84-22.94,52.6c-3.4,28.18,7.24,62.44,13.68,73.02c2.5,4.08,8.28,4.15,10.96,0.23
		c7.56-11.1,22.85-32.58,24.71-36.55c2-4.31,4.97-2.86,9.01-3.34c0.68-0.09,1.18,0.45,1.82,0.48c8.87,0.27,19.45,8.12,27.98,18.27
		c3.68,4.38,6.97,9.21,9.53,14.04c1.04,3.09,1.59,6.4,1.59,9.82c0,7.96-3,15.25-7.92,20.76c-1.11,1.25,0.16,3.15,1.75,2.65
		c3.31-1.02,7.4-2.5,11.55-4.49c3.09,24.85,9.96,48.94,20.42,71.68c4.2,9.1,9.03,18.02,14.32,26.5
		c26.23,41.77,65.23,74.85,109.77,93.1c10.57,4.52,22.17,8.35,34.42,11.41c12.34,3.13,24.37,5.15,35.69,5.99
		c6.81,0.61,13.64,0.91,20.47,0.91c17.13,0,34.22-1.88,51.05-5.67c13.43-3.22,24.26-6.6,33.97-10.6
		c10.98-4.24,21.69-9.48,31.88-15.52c20.58-12.16,38.71-27.18,53.87-44.65C521.49,435.4,521.43,433.35,520.16,432.11z"/>
</g>
</svg>
