<?xml version="1.0" encoding="utf-8"?>
<!-- Generator: Adobe Illustrator 23.0.3, SVG Export Plug-In . SVG Version: 6.00 Build 0)  -->
<svg version="1.1" id="Layer_1" xmlns="http://www.w3.org/2000/svg" xmlns:xlink="http://www.w3.org/1999/xlink" x="0px" y="0px"
	 viewBox="0 0 60.25 60.25" style="enable-background:new 0 0 60.25 60.25;" xml:space="preserve">
<style type="text/css">
	.st0{fill:#010101;}
</style>
<g>
	<path class="st0" d="M39.42,5.32h-18.6c-8.56,0-15.5,6.94-15.5,15.5v18.6c0,8.56,6.94,15.5,15.5,15.5h18.6
		c8.56,0,15.5-6.94,15.5-15.5v-18.6C54.93,12.26,47.98,5.32,39.42,5.32z M50.28,39.42c0,5.98-4.87,10.85-10.85,10.85h-18.6
		c-5.98,0-10.85-4.87-10.85-10.85v-18.6c0-5.98,4.87-10.85,10.85-10.85h18.6c5.98,0,10.85,4.87,10.85,10.85V39.42z"/>
	<path class="st0" d="M30.12,17.72c-6.85,0-12.4,5.55-12.4,12.4s5.55,12.4,12.4,12.4s12.4-5.55,12.4-12.4S36.97,17.72,30.12,17.72z
		 M30.12,37.87c-4.27,0-7.75-3.48-7.75-7.75c0-4.28,3.48-7.75,7.75-7.75s7.75,3.48,7.75,7.75C37.87,34.4,34.4,37.87,30.12,37.87z"/>
	<circle class="st0" cx="43.46" cy="16.79" r="1.65"/>
</g>
</svg>
