<?xml version="1.0" encoding="utf-8"?>
<!-- Generator: Adobe Illustrator 23.0.3, SVG Export Plug-In . SVG Version: 6.00 Build 0)  -->
<svg version="1.1" id="Layer_1" xmlns="http://www.w3.org/2000/svg" xmlns:xlink="http://www.w3.org/1999/xlink" x="0px" y="0px"
	 viewBox="0 0 249.51 111.1" style="enable-background:new 0 0 249.51 111.1;" xml:space="preserve">
<g>
	<g>
		<path d="M108.81,60.5c0.51-0.3,1.27-0.58,2.3-0.85c1.03-0.27,2.06-0.4,3.1-0.4c1.49,0,2.8,0.22,3.95,0.65
			c1.14,0.43,1.88,1.11,2.21,2.03c0.54,1.55,1.12,3.34,1.74,5.4c0.62,2.05,1.25,4.17,1.87,6.35c0.62,2.19,1.23,4.34,1.83,6.47
			c0.59,2.13,1.12,4.01,1.56,5.64c-0.36,0.42-0.89,0.75-1.61,1c-0.71,0.25-1.56,0.38-2.54,0.38c-0.71,0-1.32-0.06-1.81-0.18
			c-0.49-0.12-0.89-0.3-1.2-0.54c-0.31-0.24-0.57-0.55-0.76-0.94c-0.19-0.39-0.36-0.83-0.51-1.34l-0.8-3.08h-8.07
			c-0.24,0.89-0.48,1.81-0.71,2.76c-0.24,0.95-0.48,1.87-0.71,2.76c-0.42,0.15-0.85,0.27-1.32,0.38c-0.46,0.1-1.02,0.16-1.67,0.16
			c-1.52,0-2.64-0.26-3.37-0.78c-0.73-0.52-1.09-1.24-1.09-2.16c0-0.42,0.06-0.83,0.18-1.25c0.12-0.42,0.25-0.91,0.4-1.47
			c0.21-0.8,0.5-1.8,0.87-2.99c0.37-1.19,0.78-2.48,1.23-3.86c0.45-1.38,0.92-2.8,1.43-4.26c0.51-1.46,0.98-2.83,1.43-4.12
			c0.45-1.29,0.85-2.44,1.23-3.46C108.31,61.8,108.6,61.03,108.81,60.5z M114.16,66.25c-0.42,1.25-0.88,2.64-1.4,4.17
			c-0.52,1.53-0.99,3.08-1.4,4.66h5.53c-0.42-1.61-0.84-3.17-1.27-4.7c-0.43-1.53-0.82-2.91-1.18-4.12H114.16z"/>
		<path d="M149.7,80.07c-0.39,0.33-0.88,0.59-1.49,0.78c-0.61,0.19-1.32,0.29-2.12,0.29c-1.07,0-1.96-0.13-2.65-0.4
			c-0.7-0.27-1.15-0.73-1.36-1.38c-0.83-2.62-1.52-4.73-2.05-6.35c-0.54-1.62-0.95-3.04-1.25-4.26h-0.22
			c-0.09,1.75-0.16,3.35-0.2,4.79c-0.04,1.44-0.07,2.85-0.09,4.21c-0.02,1.37-0.04,2.75-0.09,4.15c-0.04,1.4-0.11,2.94-0.2,4.64
			c-0.39,0.15-0.89,0.27-1.52,0.38c-0.62,0.1-1.25,0.16-1.87,0.16c-1.31,0-2.33-0.21-3.05-0.62c-0.73-0.42-1.09-1.17-1.09-2.27
			l1.29-22.74c0.24-0.39,0.76-0.8,1.56-1.25c0.8-0.45,1.93-0.67,3.39-0.67c1.58,0,2.81,0.25,3.7,0.74c0.89,0.49,1.55,1.29,1.96,2.39
			c0.27,0.71,0.56,1.53,0.87,2.45c0.31,0.92,0.62,1.87,0.94,2.85c0.31,0.98,0.62,1.95,0.91,2.92c0.3,0.97,0.56,1.84,0.8,2.61h0.22
			c0.71-2.5,1.43-4.91,2.14-7.25c0.71-2.33,1.37-4.29,1.96-5.86c0.45-0.24,1.02-0.44,1.72-0.6c0.7-0.16,1.48-0.25,2.34-0.25
			c1.46,0,2.65,0.22,3.57,0.65c0.92,0.43,1.46,1.05,1.6,1.85c0.12,0.59,0.25,1.51,0.38,2.74c0.13,1.23,0.27,2.62,0.42,4.17
			c0.15,1.55,0.3,3.18,0.45,4.91c0.15,1.72,0.29,3.38,0.42,4.97c0.13,1.59,0.25,3.05,0.33,4.37c0.09,1.32,0.15,2.34,0.18,3.05
			c-0.51,0.3-1.03,0.51-1.58,0.65c-0.55,0.13-1.26,0.2-2.12,0.2c-1.13,0-2.08-0.19-2.85-0.58c-0.77-0.39-1.19-1.14-1.25-2.27
			c-0.18-3.24-0.29-6.15-0.33-8.74c-0.04-2.59-0.11-4.76-0.2-6.51h-0.22c-0.3,1.16-0.73,2.62-1.29,4.37
			C151.18,75.09,150.5,77.34,149.7,80.07z"/>
		<path d="M177.03,87.43c-0.51,0-1.1-0.02-1.78-0.04c-0.68-0.03-1.39-0.09-2.12-0.18c-0.73-0.09-1.45-0.2-2.16-0.33
			c-0.71-0.13-1.37-0.32-1.96-0.56c-1.64-0.62-2.45-1.71-2.45-3.26V62.23c0-0.62,0.17-1.11,0.51-1.45c0.34-0.34,0.81-0.62,1.4-0.83
			c1.01-0.36,2.27-0.62,3.79-0.78c1.52-0.16,3.08-0.25,4.68-0.25c3.8,0,6.73,0.64,8.78,1.92c2.05,1.28,3.08,3.26,3.08,5.93
			c0,1.34-0.39,2.49-1.16,3.46c-0.77,0.97-1.81,1.67-3.12,2.12c1.49,0.42,2.73,1.17,3.72,2.27c1,1.1,1.49,2.48,1.49,4.15
			c0,2.94-1.09,5.12-3.28,6.53C184.28,86.72,181.13,87.43,177.03,87.43z M174.13,70.26h3.26c1.28,0,2.21-0.24,2.79-0.71
			c0.58-0.48,0.87-1.17,0.87-2.1c0-0.8-0.33-1.44-1-1.92c-0.67-0.48-1.67-0.71-3.01-0.71c-0.45,0-0.96,0.02-1.54,0.04
			c-0.58,0.03-1.03,0.07-1.36,0.13V70.26z M174.13,81.14c0.42,0.12,0.95,0.2,1.61,0.25c0.65,0.04,1.28,0.07,1.87,0.07
			c1.19,0,2.18-0.24,2.96-0.74c0.79-0.49,1.18-1.26,1.18-2.3c0-0.98-0.33-1.68-0.98-2.1c-0.65-0.42-1.65-0.62-2.99-0.62h-3.66V81.14
			z"/>
		<path d="M194.15,63.84c0-1.28,0.37-2.29,1.11-3.03c0.74-0.74,1.75-1.12,3.03-1.12h14.72c0.21,0.33,0.39,0.76,0.56,1.29
			c0.16,0.54,0.24,1.1,0.24,1.69c0,1.13-0.24,1.93-0.74,2.41c-0.49,0.48-1.14,0.71-1.94,0.71h-9.41v4.15h10.03
			c0.21,0.33,0.39,0.75,0.56,1.27c0.16,0.52,0.25,1.08,0.25,1.67c0,1.13-0.24,1.93-0.71,2.41c-0.48,0.48-1.11,0.71-1.92,0.71h-8.2
			v4.68h11.46c0.21,0.33,0.39,0.76,0.56,1.29c0.16,0.53,0.25,1.1,0.25,1.69c0,1.13-0.25,1.94-0.74,2.43
			c-0.49,0.49-1.14,0.74-1.94,0.74H198.3c-1.28,0-2.29-0.37-3.03-1.11c-0.74-0.74-1.11-1.75-1.11-3.03V63.84z"/>
		<path d="M226.35,77.98v8.56c-0.33,0.09-0.84,0.18-1.54,0.27c-0.7,0.09-1.39,0.13-2.07,0.13c-0.68,0-1.29-0.05-1.81-0.16
			c-0.52-0.1-0.95-0.29-1.29-0.56c-0.34-0.27-0.6-0.64-0.78-1.12c-0.18-0.48-0.27-1.1-0.27-1.87v-21c0-0.62,0.17-1.11,0.51-1.45
			c0.34-0.34,0.81-0.62,1.4-0.83c1.01-0.36,2.19-0.62,3.52-0.78c1.34-0.16,2.76-0.25,4.28-0.25c4.1,0,7.19,0.86,9.27,2.59
			c2.08,1.72,3.12,4.06,3.12,7c0,1.84-0.48,3.42-1.43,4.73c-0.95,1.31-2.08,2.32-3.39,3.03c1.07,1.46,2.13,2.82,3.17,4.1
			c1.04,1.28,1.86,2.44,2.45,3.48c-0.3,1.04-0.84,1.84-1.63,2.39c-0.79,0.55-1.67,0.82-2.65,0.82c-0.65,0-1.22-0.07-1.69-0.22
			c-0.48-0.15-0.89-0.36-1.25-0.62c-0.36-0.27-0.68-0.59-0.98-0.98c-0.3-0.39-0.58-0.8-0.85-1.25l-3.75-6.02H226.35z M229.16,72.04
			c1.13,0,2.02-0.29,2.68-0.87c0.65-0.58,0.98-1.43,0.98-2.56c0-1.13-0.36-1.98-1.09-2.56c-0.73-0.58-1.88-0.87-3.46-0.87
			c-0.45,0-0.8,0.02-1.07,0.04c-0.27,0.03-0.56,0.07-0.89,0.13v6.69H229.16z"/>
	</g>
	<g>
		<path d="M118.02,49.16c0,0.46-0.08,0.8-0.25,1.03c-0.16,0.22-0.42,0.44-0.78,0.65c-0.21,0.12-0.47,0.23-0.78,0.35
			c-0.31,0.11-0.65,0.21-1.03,0.29c-0.37,0.08-0.76,0.14-1.17,0.19c-0.41,0.04-0.81,0.07-1.22,0.07c-1.07,0-2.07-0.14-3.01-0.43
			c-0.94-0.29-1.75-0.73-2.44-1.32c-0.69-0.59-1.24-1.32-1.64-2.2c-0.4-0.88-0.6-1.9-0.6-3.06c0-1.22,0.22-2.28,0.66-3.19
			c0.44-0.91,1.02-1.66,1.74-2.26c0.72-0.6,1.55-1.05,2.48-1.35c0.93-0.3,1.88-0.45,2.87-0.45c1.41,0,2.53,0.23,3.36,0.68
			c0.83,0.45,1.24,1.04,1.24,1.77c0,0.39-0.1,0.72-0.29,1c-0.19,0.28-0.42,0.51-0.67,0.67c-0.37-0.22-0.84-0.44-1.39-0.66
			s-1.19-0.32-1.88-0.32c-1.25,0-2.24,0.36-2.98,1.07c-0.74,0.71-1.1,1.7-1.1,2.97c0,0.68,0.1,1.28,0.3,1.77
			c0.2,0.5,0.47,0.91,0.81,1.23c0.34,0.32,0.74,0.56,1.18,0.71c0.45,0.16,0.92,0.23,1.43,0.23c0.33,0,0.62-0.03,0.87-0.09
			c0.25-0.06,0.45-0.13,0.58-0.2v-2.1h-2.39c-0.09-0.16-0.17-0.38-0.26-0.65c-0.08-0.27-0.12-0.55-0.12-0.85
			c0-0.54,0.12-0.92,0.37-1.16c0.24-0.24,0.56-0.36,0.95-0.36h3.77c0.45,0,0.79,0.12,1.04,0.37c0.25,0.25,0.37,0.59,0.37,1.04V49.16
			z"/>
		<path d="M129.57,51.44c-0.64,0-1.15-0.19-1.52-0.56c-0.37-0.37-0.56-0.88-0.56-1.52V37.83c0.16-0.03,0.42-0.07,0.78-0.12
			c0.36-0.05,0.7-0.08,1.03-0.08c0.34,0,0.64,0.03,0.9,0.08c0.26,0.05,0.48,0.14,0.66,0.28c0.18,0.13,0.31,0.32,0.4,0.56
			c0.09,0.24,0.13,0.55,0.13,0.94v8.81h5.11c0.1,0.16,0.2,0.38,0.29,0.66c0.09,0.28,0.13,0.56,0.13,0.86c0,0.59-0.13,1.01-0.38,1.26
			c-0.25,0.25-0.59,0.37-1,0.37H129.57z"/>
		<path d="M144.52,44.59c0-1.16,0.18-2.19,0.55-3.08c0.36-0.89,0.86-1.64,1.49-2.24c0.63-0.6,1.37-1.06,2.23-1.37
			c0.85-0.31,1.78-0.47,2.78-0.47c1,0,1.92,0.16,2.78,0.47c0.85,0.31,1.6,0.77,2.24,1.37c0.64,0.6,1.14,1.35,1.51,2.24
			c0.36,0.89,0.55,1.92,0.55,3.08c0,1.16-0.18,2.19-0.54,3.09c-0.36,0.9-0.85,1.65-1.48,2.25c-0.63,0.6-1.38,1.06-2.24,1.37
			s-1.8,0.47-2.81,0.47c-1.01,0-1.95-0.16-2.81-0.48c-0.86-0.32-1.61-0.78-2.23-1.39c-0.62-0.61-1.12-1.36-1.47-2.25
			C144.69,46.75,144.52,45.74,144.52,44.59z M148.53,44.59c0,1.35,0.27,2.36,0.83,3.03c0.55,0.67,1.29,1,2.21,1
			c0.94,0,1.68-0.33,2.23-1c0.55-0.67,0.83-1.68,0.83-3.03c0-1.34-0.27-2.34-0.81-3.01c-0.54-0.67-1.28-1-2.22-1
			c-0.92,0-1.66,0.33-2.22,0.99C148.81,42.23,148.53,43.24,148.53,44.59z"/>
		<path d="M174.02,41.16c0.16-0.07,0.42-0.16,0.77-0.26c0.35-0.1,0.7-0.14,1.06-0.14c0.62,0,1.14,0.09,1.56,0.28
			c0.42,0.19,0.67,0.46,0.76,0.81c0.16,0.61,0.32,1.18,0.46,1.71c0.14,0.53,0.28,1.03,0.41,1.52c0.13,0.48,0.26,0.96,0.39,1.44
			c0.13,0.48,0.25,0.97,0.37,1.49h0.11c0.13-0.91,0.25-1.77,0.36-2.6c0.1-0.83,0.2-1.64,0.29-2.43c0.09-0.8,0.18-1.58,0.27-2.36
			c0.09-0.78,0.18-1.57,0.27-2.37c0.55-0.31,1.14-0.47,1.76-0.47c0.55,0,1.03,0.12,1.43,0.36c0.4,0.24,0.6,0.64,0.6,1.2
			c0,0.33-0.03,0.79-0.1,1.39c-0.07,0.6-0.16,1.27-0.27,2.02c-0.11,0.74-0.24,1.52-0.39,2.34c-0.15,0.82-0.31,1.6-0.47,2.34
			c-0.16,0.74-0.33,1.42-0.5,2.02c-0.17,0.6-0.33,1.07-0.48,1.39c-0.22,0.21-0.59,0.38-1.09,0.51c-0.51,0.13-1.03,0.2-1.56,0.2
			c-0.7,0-1.29-0.09-1.77-0.28c-0.48-0.19-0.78-0.45-0.88-0.79c-0.19-0.59-0.4-1.3-0.62-2.12c-0.22-0.82-0.46-1.72-0.71-2.7
			c-0.21,0.97-0.42,1.91-0.65,2.83c-0.22,0.92-0.42,1.7-0.6,2.34c-0.22,0.21-0.56,0.38-1,0.51c-0.45,0.13-0.94,0.2-1.47,0.2
			c-0.67,0-1.27-0.09-1.82-0.28c-0.54-0.19-0.9-0.45-1.06-0.79c-0.13-0.27-0.28-0.67-0.43-1.19c-0.16-0.53-0.32-1.13-0.48-1.81
			c-0.16-0.68-0.33-1.41-0.5-2.2c-0.17-0.79-0.33-1.58-0.47-2.36c-0.14-0.79-0.27-1.56-0.39-2.31c-0.12-0.75-0.21-1.44-0.27-2.06
			c0.21-0.19,0.5-0.37,0.87-0.54c0.37-0.16,0.77-0.25,1.2-0.25c0.56,0,1.03,0.12,1.39,0.37c0.36,0.25,0.59,0.66,0.68,1.24
			c0.24,1.52,0.44,2.78,0.59,3.79c0.16,1.01,0.28,1.84,0.38,2.49c0.1,0.65,0.17,1.15,0.21,1.51c0.04,0.36,0.09,0.64,0.13,0.85h0.11
			c0.13-0.59,0.26-1.14,0.38-1.65c0.12-0.51,0.24-1.01,0.37-1.53c0.13-0.51,0.26-1.06,0.39-1.65
			C173.73,42.59,173.87,41.92,174.02,41.16z"/>
		<path d="M204.64,44.59c0-1.16,0.18-2.19,0.55-3.08c0.36-0.89,0.86-1.64,1.49-2.24c0.63-0.6,1.37-1.06,2.23-1.37
			c0.85-0.31,1.78-0.47,2.78-0.47c1,0,1.92,0.16,2.78,0.47c0.85,0.31,1.6,0.77,2.24,1.37c0.64,0.6,1.14,1.35,1.51,2.24
			c0.36,0.89,0.55,1.92,0.55,3.08c0,1.16-0.18,2.19-0.54,3.09c-0.36,0.9-0.85,1.65-1.48,2.25c-0.63,0.6-1.38,1.06-2.24,1.37
			s-1.8,0.47-2.81,0.47c-1.01,0-1.95-0.16-2.81-0.48c-0.86-0.32-1.61-0.78-2.23-1.39c-0.62-0.61-1.12-1.36-1.47-2.25
			C204.82,46.75,204.64,45.74,204.64,44.59z M208.65,44.59c0,1.35,0.27,2.36,0.83,3.03c0.55,0.67,1.29,1,2.21,1
			c0.94,0,1.68-0.33,2.23-1c0.55-0.67,0.83-1.68,0.83-3.03c0-1.34-0.27-2.34-0.81-3.01c-0.54-0.67-1.28-1-2.22-1
			c-0.92,0-1.66,0.33-2.22,0.99C208.93,42.23,208.65,43.24,208.65,44.59z"/>
		<path d="M237.4,37.86c0.1,0.16,0.2,0.38,0.28,0.66c0.08,0.28,0.12,0.56,0.12,0.86c0,0.58-0.12,0.99-0.37,1.24
			c-0.25,0.25-0.58,0.37-0.99,0.37h-4.68v2.52h4.88c0.12,0.16,0.22,0.38,0.3,0.65s0.12,0.55,0.12,0.85c0,0.57-0.12,0.97-0.37,1.22
			c-0.24,0.25-0.58,0.37-0.99,0.37h-3.9v4.71c-0.16,0.04-0.42,0.09-0.77,0.13s-0.7,0.07-1.04,0.07c-0.34,0-0.64-0.03-0.9-0.08
			c-0.26-0.05-0.48-0.14-0.66-0.28c-0.18-0.13-0.31-0.32-0.4-0.56c-0.09-0.24-0.13-0.55-0.13-0.94v-9.7c0-0.64,0.19-1.14,0.56-1.52
			s0.88-0.56,1.52-0.56H237.4z"/>
	</g>
	<g>
		<path d="M39.77,15.72c5.4,1.51,6.97,6.89,6.97,9.78c0,2.93,0.08,6.42,4.76,9.27s9.35,4.36,15.77,6.5c5.8,1.93,6.1,7.3,6.11,8.31
			c0,0.11,0.06,0.2,0.15,0.25c3.38,1.94,3.71,6.04,3.73,7.21c0,0.16,0.13,0.29,0.29,0.29c0.76,0.02,3.13,0.47,8.43,4.46
			c4.03,3.03,7.13,7.36,9.01,10.41c0.68,1.11,2.4,0.68,2.47-0.62c0.36-6.82-1.19-11.06-1.76-12.36c-0.09-0.2,0.05-0.41,0.27-0.42
			c0.41-0.01,0.89-0.07,1.39-0.15c1.13-0.19,1.44-1.64,0.49-2.28c-0.87-0.59-1.85-1.39-2.84-2.47c-1.6-1.76-3.03-6.07-3.71-8.19
			c-1.12-3.48-3.67-8.58-4.45-10.1c-0.1-0.2,0.04-0.42,0.25-0.43c0.89-0.05,1.83-0.46,2.4-0.75c0.22-0.11,0.23-0.42,0.01-0.53
			c-1.96-1.05-2.86-3.06-3.17-3.9c-0.07-0.18,0.05-0.38,0.24-0.4c0.57-0.08,1.04-0.38,1.34-0.63c0.17-0.14,0.13-0.42-0.07-0.51
			c-0.59-0.25-1.64-0.79-2.14-1.56c-0.6-0.92-1.07-1.51-1.39-1.87c-0.17-0.19-0.04-0.49,0.22-0.5c2.13-0.08,3.42-1.07,3.79-1.39
			c0.07-0.06,0.11-0.15,0.1-0.25c-0.16-3.12-1.83-6.81-5.4-10.67c-3.63-3.92-9.15-6.6-13.55-6.54c-4.4,0.06-6.78,1.59-7.13,0.05
			c-0.18-0.76-0.02-1.33,0.19-1.71c0.12-0.23-0.1-0.49-0.35-0.44c-2.53,0.59-3.68,2.19-4.11,2.98c-0.12,0.23-0.44,0.21-0.55-0.02
			c-0.26-0.57-0.13-1.21,0.07-1.7c0.11-0.27-0.17-0.53-0.43-0.39c-0.88,0.5-2.28,1.48-3.33,3.13c-1.66,2.62-4.4,3.15-9.75,5.29
			c-3.11,1.24-4.15,1.98-4.48,2.39C39.47,15.42,39.56,15.66,39.77,15.72z"/>
		<path d="M67.67,58.95C67.35,58.63,62.55,59,62.55,59l-2.3,4.11c0,0,1.15,0.04,1.15,0.75c0,0,1.11-0.3,1.62,0.28
			c0.11,0.12,0.16,0.28,0.16,0.28s0.12-1.31,1.47-0.87c0,0,0.63-0.87,1.78-0.91c0,0-0.08-1.15,1.39-0.95c0,0-0.2-0.83,0.32-1.74
			C68.14,59.94,67.98,59.27,67.67,58.95z"/>
		<path d="M54.81,54.96c-1.33-0.2-2.64-1.43-2.44-1.04c0.2,0.4,1.09,2.84,3.24,3.21c2.15,0.37,4.16-0.6,4.57-0.29
			c0.41,0.31,1.35,0.49,1.35,0.49s0-0.64,0.08-1.16c0.07-0.51,1.98-1.55,2.97-3.49c0.99-1.94-0.44-4.12-0.63-4.52
			c-0.2-0.4,0,1.39-0.63,2.58c-0.63,1.19-2.26,1.59-2.89,0.99c-0.63-0.59-0.52-1.66,0.59-2.26c1.11-0.59,0.99,0.91,1.35,0.91
			c0.36,0,1.59-0.48,1.15-2.46c-0.44-1.98-3.49-2.69-4.87-2.54c-1.39,0.16-2.62,1.11-2.62,1.11l-0.23,0.07c0,0-1.5,0.41-2.46,1.43
			c-0.96,1.02-2.22,3.89-0.89,5.42c1.33,1.54,2.44,0.84,2.66,0.55c0.21-0.29-1.06-1.09,0.08-1.62c1.14-0.53,2.07,0.01,2.16,0.88
			C57.43,54.1,56.14,55.16,54.81,54.96z"/>
		<path d="M112.45,90.97c-0.26-0.26-0.68-0.27-0.95-0.03c-3.48,3.07-7.32,5.59-11.39,7.5c-4.17,1.94-8.5,3.24-12.87,3.88
			c-8.64,1.33-17.81-0.01-25.82-3.79c-3.15-1.48-6.19-3.4-9.05-5.7c-0.6-0.48-1.21-0.99-1.8-1.53c-0.14-0.13-0.27-0.25-0.41-0.38
			l-0.01-0.01c0,0,0,0,0-0.01c-0.01,0-0.02-0.01-0.03-0.02c-0.01-0.01-0.02-0.02-0.03-0.02c-0.19-0.18-0.38-0.36-0.57-0.54
			c-0.9-0.93-1.61-2.05-2.07-3.29c0-0.01-0.01-0.03-0.01-0.04c-0.37-1.02-0.58-2.12-0.58-3.26c0-4.75,3.49-8.69,8.05-9.38
			c0,0,0.01,0,0.01,0c0.47-0.07,0.95-0.11,1.43-0.11c0.13,0,0.25,0,0.37,0.01c-0.21-0.64-0.7-2.56,0.28-4.32
			c1.19-2.14,2.83-3.64,2.6-2.61c-0.24,1.02,0.95,2.14,2.33,2.18c1.39,0.04,4.64-1.78,7.37-3.65c2.74-1.86,1.86-3.41,2.65-4.28
			c0.8-0.87,3.69,0.87,3.97-0.32c0.19-0.83-1.06-3.13-1.85-4.47c-0.22-0.36-0.74-0.32-0.94,0.06c-0.7,1.39-2.3,2.04-2.97,2.26
			c-0.19,0.06-0.33,0.23-0.36,0.43c-0.04,0.32-0.09,0.87-0.11,1.6c-0.04,1.23-4.35,3.14-5.15,3.58c-0.79,0.43-1.35,0.36-1.35,0.36
			c-0.56,0.83-2.02,0.23-2.02,0.23c-0.43,0.34-0.94,0.14-1.32-0.12c-0.27-0.18-0.63-0.09-0.77,0.2c-0.21,0.45-0.66,0.97-1.63,1.18
			c-6.17,1.34-9.35-6.57-10.79-11.81c-1.42-5.23-0.79-11.18-1.02-15.46c-0.24-4.28-2.22-5.95-5.31-7.37
			c-3.08-1.42-4.92-2.53-5.31-6.98c-0.29-3.2-1.1-4.3-1.54-4.66c-0.14-0.12-0.35-0.14-0.52-0.07c-2.43,1.02-3.83,4.35-5.38,5.91
			c-1.61,1.6-3.91,0.7-6.7,1.05c-1.01,0.13-1.79,0.34-2.37,0.56c-0.41,0.15-0.45,0.74-0.06,0.94c0.7,0.38,0.9,1.18,0.92,1.24
			c-0.11-0.05-1.08-0.41-3.69,0.64c-1.26,0.51-2.1,1.06-2.66,1.55c-0.4,0.35-0.07,1,0.45,0.91c1.93-0.32,2.87,0.18,2.87,0.18
			s-0.08,0.01-3.5,1.37c-4.71,1.86-3.76,3.03-4.69,10.75c-0.7,5.76,1.48,12.76,2.8,14.92c0.51,0.83,1.69,0.85,2.24,0.05
			c1.54-2.27,4.67-6.66,5.05-7.47c0.41-0.88,1.02-0.58,1.84-0.68c0.14-0.02,0.24,0.09,0.37,0.1c1.81,0.06,3.97,1.66,5.72,3.73
			c0.75,0.9,1.42,1.88,1.95,2.87c0.21,0.63,0.32,1.31,0.32,2.01c0,1.63-0.61,3.12-1.62,4.24c-0.23,0.26,0.03,0.64,0.36,0.54
			c0.68-0.21,1.51-0.51,2.36-0.92c0.63,5.08,2.04,10,4.17,14.65c0.86,1.86,1.85,3.68,2.93,5.42c5.36,8.54,13.33,15.3,22.44,19.03
			c2.16,0.92,4.53,1.71,7.04,2.33c2.52,0.64,4.98,1.05,7.3,1.22c1.39,0.13,2.79,0.19,4.18,0.19c3.5,0,6.99-0.38,10.43-1.16
			c2.75-0.66,4.96-1.35,6.94-2.17c2.24-0.87,4.43-1.94,6.52-3.17c4.21-2.49,7.91-5.56,11.01-9.13
			C112.72,91.64,112.7,91.23,112.45,90.97z"/>
	</g>
</g>
</svg>
