<?xml version="1.0" encoding="utf-8"?>
<!-- Generator: Adobe Illustrator 23.0.3, SVG Export Plug-In . SVG Version: 6.00 Build 0)  -->
<svg version="1.1" id="Layer_1" xmlns="http://www.w3.org/2000/svg" xmlns:xlink="http://www.w3.org/1999/xlink" x="0px" y="0px"
	 viewBox="0 0 60.25 60.25" style="enable-background:new 0 0 60.25 60.25;" xml:space="preserve">
<g>
	<g>
		<path d="M19.62,31.47c3.02,4.45,6.81,7.73,10.66,9.24c3.57,1.4,5.2,1.77,6.26,1.77c0.42,0,0.75-0.06,1.08-0.14
			c0.14-0.03,0.25-0.06,0.36-0.07c1.49-0.13,4.27-1.69,4.93-3.5c0.46-1.29,0.71-2.98,0.27-3.7l0,0c-0.28-0.45-0.72-0.67-1.24-0.92
			c-0.1-0.05-0.21-0.1-0.32-0.16c-0.04-0.02-3.55-1.75-4.23-1.99c-0.5-0.18-1.66-0.6-2.52,0.68c-0.33,0.49-1.35,1.7-1.82,2.23
			c-0.04-0.01-0.08-0.03-0.14-0.06c-0.12-0.06-0.26-0.12-0.44-0.2c-0.83-0.36-2.39-1.03-4.2-2.63c-1.58-1.4-2.7-3.12-3.13-3.86
			c0.03-0.03,0.05-0.05,0.07-0.07c0.22-0.21,0.44-0.49,0.66-0.75c0.1-0.12,0.2-0.24,0.3-0.36c0.34-0.39,0.49-0.71,0.66-1.04
			l0.08-0.17c0.31-0.61,0.29-1.27-0.05-1.94c-0.1-0.19-0.71-1.68-1.16-2.77c-0.26-0.63-0.51-1.23-0.68-1.63
			c-0.63-1.51-1.51-1.66-2.2-1.61c-0.02,0-0.05,0-0.07,0c-0.14,0-0.3-0.01-0.48-0.02c-0.21-0.01-0.44-0.03-0.68-0.03
			c-0.41,0-1.45,0.1-2.34,1.07c-0.03,0.04-0.07,0.07-0.11,0.12c-0.68,0.72-2.27,2.4-2.27,5.56c0,2.97,1.87,5.75,2.66,6.8
			C19.53,31.34,19.57,31.4,19.62,31.47z"/>
	</g>
	<path d="M39.43,5.32h-18.6c-8.56,0-15.5,6.94-15.5,15.5v18.6c0,8.56,6.94,15.5,15.5,15.5h18.6c8.56,0,15.5-6.94,15.5-15.5v-18.6
		C54.93,12.26,47.99,5.32,39.43,5.32z M50.28,39.43c0,5.98-4.87,10.85-10.85,10.85h-18.6c-5.98,0-10.85-4.87-10.85-10.85v-18.6
		c0-5.98,4.87-10.85,10.85-10.85h18.6c5.98,0,10.85,4.87,10.85,10.85V39.43z"/>
</g>
</svg>
