<?xml version="1.0" encoding="utf-8"?>
<!-- Generator: Adobe Illustrator 23.0.3, SVG Export Plug-In . SVG Version: 6.00 Build 0)  -->
<svg version="1.1" id="Layer_1" xmlns="http://www.w3.org/2000/svg" xmlns:xlink="http://www.w3.org/1999/xlink" x="0px" y="0px"
	 viewBox="0 0 86.22 82.11" style="enable-background:new 0 0 86.22 82.11;" xml:space="preserve">
<g>
	<path d="M42.97,45.92c12.33,0,22.34-10,22.34-22.33c0-12.33-10-22.27-22.34-22.27c-12.33,0-22.34,10-22.34,22.27
		S30.64,45.92,42.97,45.92L42.97,45.92z M42.97,7.14c9.05,0,16.45,7.4,16.45,16.44s-7.4,16.44-16.45,16.44
		c-9.04,0-16.44-7.4-16.44-16.44S33.93,7.14,42.97,7.14L42.97,7.14z M42.97,7.14"/>
	<path d="M4.33,80.8h77.56c1.65,0,2.95-1.3,2.95-2.95c0-15.42-12.54-28.02-28.02-28.02H29.4c-15.42,0-28.02,12.54-28.02,28.02
		C1.38,79.49,2.68,80.8,4.33,80.8L4.33,80.8z M29.4,55.72h27.41c11.24,0,20.49,8.36,21.93,19.19H7.48
		C8.92,64.14,18.17,55.72,29.4,55.72L29.4,55.72z M29.4,55.72"/>
</g>
</svg>
